<svg version="1.1" id="Layer_1" xmlns="http://www.w3.org/2000/svg" xmlns:xlink="http://www.w3.org/1999/xlink" x="0px" y="0px"
	 width="100%" viewBox="0 0 216 223" enable-background="new 0 0 216 223" xml:space="preserve">
<path fill="#000000" opacity="1.000000" stroke="none" 
	d="
M128.000000,224.000000 
	C85.333336,224.000000 43.166672,224.000000 1.000006,224.000000 
	C1.000004,149.666672 1.000004,75.333344 1.000002,1.000016 
	C72.999992,1.000010 144.999985,1.000010 216.999969,1.000005 
	C216.999985,75.333321 216.999985,149.666641 217.000000,223.999969 
	C187.500000,224.000000 158.000000,224.000000 128.000000,224.000000 
M82.568367,61.957615 
	C82.740898,61.647766 82.913429,61.337917 83.015877,61.022724 
	C83.015877,61.022724 83.041847,61.088036 83.727936,61.015186 
	C84.583809,60.329380 85.439682,59.643578 86.547760,59.016777 
	C86.547760,59.016777 86.761223,58.870071 87.427811,58.967670 
	C87.713737,58.634521 87.999672,58.301376 88.545174,58.019646 
	C88.545174,58.019646 88.764771,57.871990 89.420891,57.968533 
	C89.696724,57.638992 89.972565,57.309456 90.563744,57.014000 
	C90.563744,57.014000 90.841583,56.861004 91.653450,56.992287 
	C93.415024,56.610508 95.176605,56.228729 97.873718,55.989880 
	C110.252419,55.932358 122.631111,55.874832 135.805496,55.956165 
	C141.203903,57.914360 146.602310,59.872555 152.474609,61.986900 
	C152.474609,61.986900 152.963013,62.091194 153.024536,62.826462 
	C155.763885,65.802040 158.693588,68.626251 161.204269,71.783661 
	C167.024338,79.102951 169.468658,87.951965 168.696915,96.856857 
	C167.848923,106.641602 165.868759,116.553185 159.255310,125.242325 
	C157.479691,127.143608 155.704071,129.044891 153.997772,130.998489 
	C153.997772,130.998489 153.949081,130.926666 153.181702,130.999802 
	C148.330948,131.954361 144.498932,136.393814 138.585129,134.997314 
	C138.585129,134.997314 138.141388,134.988327 138.005753,134.059586 
	C138.003235,116.829636 138.026566,99.599571 137.949463,82.369957 
	C137.943237,80.981560 137.246857,79.596252 136.187866,78.058075 
	C133.759277,80.025475 131.330688,81.992882 128.328949,84.162781 
	C127.571548,84.831734 126.814148,85.500694 125.359100,86.021965 
	C124.538956,87.001389 123.718803,87.980812 122.983627,88.980957 
	C122.983627,88.980957 122.958252,88.897247 122.221664,89.008369 
	C120.134819,90.643173 118.047966,92.277977 115.213936,94.249619 
	C114.813042,95.762390 114.036407,97.286278 114.080780,98.785873 
	C114.221245,103.533073 114.799088,108.266678 114.963577,113.014000 
	C115.159927,118.680717 115.103973,124.356163 115.015457,130.952087 
	C115.009995,140.875641 115.025421,150.799301 114.983658,160.722702 
	C114.973831,163.057266 115.094208,165.326263 118.242149,164.969269 
	C125.863594,164.104935 133.465729,163.070297 141.884033,162.007004 
	C150.982239,159.954742 159.975815,157.661575 167.023056,151.014862 
	C167.023056,151.014862 167.008774,151.096817 167.524216,150.951843 
	C167.712189,150.662720 167.900162,150.373611 168.009781,149.999069 
	C168.009781,149.999069 168.078293,150.085861 168.626785,149.882523 
	C169.100266,149.283157 169.573730,148.683792 170.695541,147.988876 
	C171.127136,147.932159 171.558716,147.875458 172.590561,147.876938 
	C173.084900,147.268143 173.579239,146.659348 174.004776,146.006256 
	C174.004776,146.006256 174.051865,146.073166 174.614655,145.888824 
	C175.101746,145.285248 175.588852,144.681686 176.697906,143.826431 
	C177.505646,142.553864 178.313385,141.281296 179.657776,139.851181 
	C180.108795,139.278259 180.559799,138.705353 181.626740,137.865036 
	C182.116135,136.923019 182.605530,135.980988 183.016724,135.009857 
	C183.016724,135.009857 183.047897,135.087250 183.695724,134.813248 
	C184.385101,134.105652 185.295914,133.512939 185.731323,132.673599 
	C195.625839,113.599754 199.656830,93.907089 191.801620,72.291847 
	C190.565292,69.831757 189.328949,67.371658 188.018219,64.263290 
	C187.377792,63.479843 186.737350,62.696396 186.022583,61.205017 
	C185.036819,59.776253 184.051041,58.347488 183.018341,56.993896 
	C183.018341,56.993896 183.102661,56.966633 183.024429,56.295406 
	C182.045883,55.168114 181.067322,54.040821 180.027191,52.207558 
	C176.031403,48.760300 172.035614,45.313046 168.006027,41.140377 
	C166.638367,40.480831 165.270691,39.821285 163.538483,39.019127 
	C163.538483,39.019127 163.148544,38.984631 163.020111,38.284618 
	C162.363403,37.821846 161.706711,37.359074 160.994400,36.983219 
	C160.994400,36.983219 161.086639,36.938557 160.789093,36.270161 
	C159.181427,35.906967 157.573746,35.543777 155.556564,35.025658 
	C155.556564,35.025658 155.121948,34.972763 154.943680,34.453400 
	C154.637253,34.274921 154.330841,34.096443 154.042725,34.000252 
	C154.042725,34.000252 154.083527,33.924816 154.019196,33.105957 
	C152.027161,32.705814 150.035110,32.305672 148.006577,31.991467 
	C148.006577,31.991467 148.096313,31.965698 147.923676,31.445408 
	C147.606400,31.353413 147.289139,31.261415 146.563019,31.015272 
	C146.563019,31.015272 146.132660,30.939699 145.967712,30.426470 
	C145.662460,30.268116 145.357224,30.109762 145.011597,30.008963 
	C145.011597,30.008963 145.078354,29.975004 144.727875,29.229919 
	C135.130142,28.876352 125.532410,28.522785 115.211594,28.019669 
	C114.480782,28.074484 113.749977,28.129301 112.089294,28.043962 
	C104.196594,28.359213 96.243423,28.192720 88.434235,29.173149 
	C83.861427,29.747255 79.518219,32.150177 75.095238,33.762173 
	C75.095238,33.762173 75.056679,33.755550 74.965240,33.792091 
	C74.965240,33.792091 74.957855,33.890282 74.251732,33.992397 
	C73.129143,34.650280 72.006554,35.308167 70.247322,36.232052 
	C69.437256,37.055931 68.772385,38.170059 67.794807,38.659107 
	C57.224945,43.946804 53.034462,53.865791 48.801193,64.719704 
	C48.185810,67.129875 47.570431,69.540047 46.168667,72.345619 
	C46.113831,72.839737 46.011066,73.333847 46.010971,73.827972 
	C46.002254,119.056038 45.994530,164.284103 46.038239,209.512131 
	C46.039371,210.684921 46.608536,211.857178 47.004181,213.783569 
	C48.270027,216.991547 48.835327,216.910919 52.002972,213.001434 
	C52.002972,213.001434 52.058098,213.068375 52.708141,212.801453 
	C54.801998,211.144897 56.895855,209.488327 59.672905,207.806488 
	C62.129478,205.575073 64.586052,203.343658 67.642952,200.869263 
	C68.458588,200.266724 69.274223,199.664185 70.561638,198.985474 
	C70.561638,198.985474 71.010094,198.821655 71.808647,198.674561 
	C72.205284,196.990448 72.941292,195.307510 72.947197,193.622025 
	C73.024727,171.472137 72.896339,149.321243 73.033630,127.171936 
	C73.135254,110.775864 73.548965,94.381729 73.982605,77.194565 
	C75.328560,73.843559 76.674515,70.492546 78.610573,66.888870 
	C78.768524,66.287704 78.926468,65.686539 79.043861,65.026512 
	C79.043861,65.026512 79.011261,65.090118 79.554123,64.949768 
	C79.733772,64.636757 79.913422,64.323746 80.010071,64.010368 
	C80.010071,64.010368 80.011719,64.093353 80.552773,63.950909 
	C80.730316,63.638252 80.907860,63.325600 81.014046,63.019550 
	C81.014046,63.019550 81.026314,63.090157 81.565170,62.960125 
	C81.737015,62.649433 81.908867,62.338741 82.013809,62.014214 
	C82.013809,62.014214 82.029289,62.080753 82.568367,61.957615 
M92.016502,183.035568 
	C92.016502,183.035568 92.044365,183.113800 92.717476,183.017563 
	C93.426392,182.311981 94.135315,181.606400 95.164932,180.306641 
	C96.816841,178.882034 98.468750,177.457428 100.664917,175.862213 
	C101.105888,175.517288 101.546852,175.172379 102.656075,174.825317 
	C103.815834,173.892365 104.975594,172.959412 106.476059,172.002701 
	C106.476059,172.002701 106.775696,171.838776 107.693314,171.767197 
	C107.794823,170.284943 107.978142,168.803101 107.985474,167.320374 
	C108.083717,147.454102 108.170303,127.587723 108.204765,107.721283 
	C108.206818,106.540230 107.741722,105.358368 107.494003,104.176880 
	C105.966934,104.770584 104.439873,105.364288 102.432060,106.064941 
	C102.120163,106.249435 101.961601,106.522850 101.245712,106.990784 
	C97.476967,109.956215 93.708221,112.921646 89.227570,115.986397 
	C86.698204,117.605545 83.804230,118.868767 81.760689,120.962166 
	C80.262390,122.496986 79.132820,125.121193 79.133209,127.259636 
	C79.134659,135.273499 79.642387,143.288437 80.009018,151.300751 
	C80.370506,159.200745 80.790962,167.098022 81.025505,175.898956 
	C81.335106,180.553665 81.644707,185.208359 82.041222,191.169754 
	C85.690475,188.305176 88.396133,186.181290 91.033020,184.031250 
	C91.033020,184.031250 91.013725,184.102249 91.557465,183.955719 
	C91.737000,183.641068 91.916534,183.326431 92.016502,183.035568 
z"/>
<path fill="#FDCA3C" opacity="1.000000" stroke="none" 
	d="
M138.141388,134.988327 
	C138.141388,134.988327 138.585129,134.997314 139.122162,135.307892 
	C145.108871,136.145035 150.812698,137.445663 153.949081,130.926666 
	C153.949081,130.926666 153.997772,130.998489 154.384796,130.991440 
	C156.179321,130.987793 157.586838,130.991211 159.041290,131.253540 
	C159.367203,131.811066 159.646179,132.109680 159.925140,132.408295 
	C160.082932,132.221222 160.240707,132.034134 160.398468,131.847046 
	C159.930527,131.562820 159.462570,131.278595 159.006409,130.649460 
	C159.677780,129.532715 160.337372,128.760864 161.262238,128.249695 
	C162.348633,130.588226 164.239655,132.934952 163.797272,134.695297 
	C162.252411,140.842697 163.349594,145.868729 168.078293,150.085861 
	C168.078293,150.085861 168.009781,149.999069 167.822235,150.153458 
	C167.426056,150.570831 167.217422,150.833832 167.008774,151.096817 
	C167.008774,151.096817 167.023056,151.014862 166.678833,151.011169 
	C163.557785,152.008972 160.780960,153.010483 157.787476,153.742523 
	C155.933426,152.028168 154.431244,150.354889 152.585358,149.262299 
	C151.939438,148.880005 150.447510,149.927032 149.341919,150.321350 
	C150.107773,151.184174 150.832260,152.088715 151.649704,152.899521 
	C152.727783,153.968842 153.878815,154.964630 154.659241,156.148804 
	C149.879410,157.843979 145.438828,159.382401 140.561249,160.922394 
	C133.763306,161.558746 127.402336,162.193512 121.049660,162.425323 
	C121.370872,153.026169 121.751038,144.031708 121.981483,135.033401 
	C122.357834,120.338623 122.636612,105.641335 122.963577,90.603851 
	C122.966476,89.807472 122.962364,89.352364 122.958252,88.897247 
	C122.958252,88.897247 122.983627,88.980957 123.277313,88.946426 
	C124.399590,87.997818 125.228172,87.083740 126.056747,86.169655 
	C126.814148,85.500694 127.571548,84.831734 128.999557,84.075546 
	C132.023560,82.672592 134.376953,81.356865 136.784180,80.380310 
	C136.818832,81.176033 136.799637,81.632576 136.562775,82.424721 
	C136.268845,99.356590 136.187592,115.952843 136.143112,132.549210 
	C136.141922,132.995499 136.538437,133.442856 136.926208,134.136826 
	C137.449066,134.585403 137.795227,134.786865 138.141388,134.988327 
M154.149719,137.582367 
	C152.823410,139.029633 151.497101,140.476913 150.170792,141.924179 
	C150.551483,142.471268 150.932175,143.018356 151.312866,143.565445 
	C153.393799,142.503876 155.474731,141.442307 157.555664,140.380737 
	C156.631897,139.352112 155.708130,138.323486 154.149719,137.582367 
M160.492569,148.774811 
	C160.788696,148.480804 161.084824,148.186798 161.380951,147.892807 
	C161.014786,147.687256 160.648621,147.481705 160.282455,147.276138 
	C160.178741,147.735245 160.075027,148.194366 160.492569,148.774811 
M145.751480,154.462524 
	C145.941513,154.190857 146.131546,153.919174 146.321579,153.647491 
	C146.039459,153.821747 145.757339,153.996002 145.751480,154.462524 
z"/>
<path fill="#FECB3B" opacity="1.000000" stroke="none" 
	d="
M163.148544,38.984631 
	C163.148544,38.984631 163.538483,39.019127 163.798019,39.401245 
	C165.038376,40.856640 166.019180,41.929920 167.002518,43.404003 
	C167.206238,45.112434 167.557709,46.417061 167.583923,47.728184 
	C167.738815,55.477432 167.925827,63.230034 167.792801,70.976196 
	C167.775269,71.996315 165.992233,72.986107 164.856964,73.689423 
	C164.109299,71.920937 163.531586,70.452988 163.238312,68.938126 
	C163.816711,68.568802 164.110657,68.246391 164.404587,67.923981 
	C163.890732,67.646324 163.376892,67.368668 162.525024,67.083313 
	C161.115921,66.394379 160.044800,65.713135 158.969055,64.647835 
	C158.796661,60.888187 156.367355,60.983662 153.733856,61.011795 
	C153.488373,61.007797 152.997437,60.999680 152.752991,60.998848 
	C152.508560,60.998020 152.019699,60.993603 151.859283,60.691738 
	C149.462158,58.929276 147.225433,57.468674 144.929398,55.698784 
	C143.913422,55.261200 142.956741,55.132896 141.588348,54.933228 
	C134.789307,54.563007 128.401993,54.264156 122.005768,53.541161 
	C122.002701,45.423477 122.008545,37.729939 122.448761,30.029495 
	C125.606346,29.738682 128.329544,29.454777 131.378815,29.138752 
	C132.141037,29.126001 132.577194,29.145370 133.322968,29.381763 
	C135.182922,29.649599 136.733231,29.700413 138.707611,29.748718 
	C141.113907,29.822475 143.096130,29.898741 145.078354,29.975004 
	C145.078354,29.975004 145.011597,30.008963 145.142944,30.211300 
	C145.560410,30.588989 145.846542,30.764343 146.132660,30.939699 
	C146.132660,30.939699 146.563019,31.015272 146.920441,31.269997 
	C147.516312,31.735472 147.789139,31.882463 148.096313,31.965698 
	C148.096313,31.965698 148.006577,31.991467 148.114090,32.320679 
	C150.175583,33.074867 152.129547,33.499840 154.083527,33.924812 
	C154.083527,33.924816 154.042725,34.000252 154.162415,34.186394 
	C154.562042,34.572613 154.841995,34.772690 155.121948,34.972763 
	C155.121948,34.972763 155.556564,35.025658 155.975922,35.388554 
	C157.959061,36.147152 159.522842,36.542854 161.086639,36.938557 
	C161.086639,36.938557 160.994400,36.983219 161.061737,37.272079 
	C161.802231,38.035500 162.475388,38.510067 163.148544,38.984631 
M156.248642,53.537464 
	C156.058624,53.809059 155.868607,54.080654 155.678604,54.352253 
	C155.960663,54.178043 156.242737,54.003838 156.248642,53.537464 
z"/>
<path fill="#FCD04E" opacity="1.000000" stroke="none" 
	d="
M58.989708,207.831757 
	C56.895855,209.488327 54.801998,211.144897 52.410770,212.580750 
	C52.913231,210.619843 54.239365,208.930725 54.414097,207.129883 
	C54.936058,201.750427 57.303596,196.296249 54.079304,190.914810 
	C53.577694,190.077606 54.051567,188.629623 54.141438,187.469269 
	C54.409897,184.003143 54.991600,180.536652 54.955265,177.075516 
	C54.709793,153.693634 54.237175,130.313843 54.063824,106.931702 
	C54.011002,99.807060 54.648632,92.676178 55.008198,85.550072 
	C55.196251,81.823196 55.579079,78.103134 55.666756,74.375122 
	C55.743465,71.113396 54.580132,68.650757 49.889977,68.210297 
	C49.244614,74.152199 48.109745,79.855209 48.087978,85.562469 
	C47.932934,126.207787 48.008015,166.853958 47.999207,207.499863 
	C47.998581,210.376053 47.542171,213.523041 52.066612,213.061615 
	C48.835327,216.910919 48.270027,216.991547 47.006798,212.938934 
	C47.018635,187.986984 47.041882,163.879684 47.033005,139.772385 
	C47.024685,117.164986 46.982391,94.557610 46.955048,71.950218 
	C47.570431,69.540047 48.185810,67.129875 49.313358,64.290154 
	C50.893436,62.225708 51.952709,60.585091 53.031139,58.957172 
	C55.013138,55.965282 57.006420,52.980869 59.235130,50.251724 
	C59.650124,56.043415 60.022320,61.578735 59.965931,67.109688 
	C59.711906,92.027435 59.265713,116.943268 59.030910,141.861130 
	C58.888283,156.997559 59.006027,172.136444 59.003838,187.274216 
	C59.002850,194.126724 58.994640,200.979248 58.989708,207.831757 
z"/>
<path fill="#FED753" opacity="1.000000" stroke="none" 
	d="
M59.331306,207.819122 
	C58.994640,200.979248 59.002850,194.126724 59.003838,187.274216 
	C59.006027,172.136444 58.888283,156.997559 59.030910,141.861130 
	C59.265713,116.943268 59.711906,92.027435 59.965931,67.109688 
	C60.022320,61.578735 59.650124,56.043415 59.291954,49.898361 
	C60.405525,46.543282 62.553429,43.853584 65.431664,45.532219 
	C66.787422,46.322918 66.390205,50.279629 66.590393,52.817257 
	C66.677826,53.925610 66.075737,55.080997 66.121902,56.201210 
	C66.352821,61.803326 66.694878,67.400864 66.619019,73.123108 
	C65.826866,75.090919 65.066391,76.933479 65.054909,78.780693 
	C64.959106,94.186615 65.001236,109.593399 65.001205,125.375008 
	C65.000862,126.500267 65.001045,127.250435 64.744331,128.303040 
	C64.325470,131.070297 64.163498,133.535156 64.001190,136.468658 
	C64.000664,154.085739 64.092216,171.234970 63.939281,188.382019 
	C63.898296,192.977402 64.173706,197.312317 67.042618,201.112259 
	C64.586052,203.343658 62.129478,205.575073 59.331306,207.819122 
z"/>
<path fill="#FEF57A" opacity="1.000000" stroke="none" 
	d="
M100.120651,176.032806 
	C98.468750,177.457428 96.816841,178.882034 94.657730,180.629150 
	C93.448471,181.672394 92.746422,182.393097 92.044373,183.113800 
	C92.044365,183.113800 92.016502,183.035568 91.805641,183.125671 
	C91.401100,183.511276 91.207420,183.806763 91.013733,184.102264 
	C91.013725,184.102249 91.033020,184.031250 90.682838,184.001404 
	C89.559608,184.000488 88.786552,184.029404 88.009644,183.643265 
	C87.140892,179.393051 85.500809,175.547852 85.550270,171.724518 
	C85.728973,157.909744 86.257759,144.088562 87.126534,130.299561 
	C87.431137,125.465065 86.610817,120.210251 89.939468,115.887077 
	C93.708221,112.921646 97.476967,109.956215 101.615967,107.291031 
	C101.997337,108.062431 102.008453,108.533585 101.816559,109.135246 
	C101.356918,109.470032 101.158188,109.720299 100.708542,110.182571 
	C99.250031,112.238182 97.435081,114.013542 97.087067,116.040741 
	C96.328461,120.459694 96.082153,125.004837 96.043381,129.502014 
	C95.923874,143.363251 96.048752,157.226471 95.962410,171.088196 
	C95.943550,174.115051 96.244469,176.470276 100.120651,176.032806 
z"/>
<path fill="#FEDD58" opacity="1.000000" stroke="none" 
	d="
M67.342789,200.990753 
	C64.173706,197.312317 63.898296,192.977402 63.939281,188.382019 
	C64.092216,171.234970 64.000664,154.085739 64.376099,136.468658 
	C65.501282,135.999954 66.251213,135.999908 67.248642,136.275620 
	C68.921898,139.048279 66.996460,143.478088 71.841095,144.489075 
	C71.898636,160.891495 71.945831,176.828262 71.900009,192.764755 
	C71.895973,194.169724 71.283821,195.572952 70.677658,197.026367 
	C70.297417,197.737701 70.193634,198.399673 70.089859,199.061646 
	C69.274223,199.664185 68.458588,200.266724 67.342789,200.990753 
z"/>
<path fill="#FED74C" opacity="1.000000" stroke="none" 
	d="
M181.010818,138.132431 
	C180.559799,138.705353 180.108795,139.278259 179.035614,139.922791 
	C177.942368,139.988586 177.471298,139.982773 176.999084,139.558975 
	C176.681152,131.168930 176.351547,123.197350 176.052704,115.224609 
	C175.893692,110.982483 175.665085,106.737427 175.697113,102.495430 
	C175.722733,99.102913 176.298080,95.709404 176.238266,92.323242 
	C176.200928,90.208855 175.437180,88.107307 174.999695,85.560692 
	C175.120712,82.979080 175.172363,80.830177 175.376190,78.695816 
	C175.833252,73.909630 177.655594,68.793091 176.516312,64.440796 
	C175.302048,59.802044 176.220627,57.738674 180.342438,56.034515 
	C181.476807,56.375465 182.289734,56.671051 183.102661,56.966637 
	C183.102661,56.966633 183.018341,56.993896 182.998825,57.297653 
	C182.956787,58.059586 182.934280,58.517754 182.564041,59.095779 
	C181.811279,61.144157 181.406250,63.072678 180.742737,65.046249 
	C180.186569,65.369576 179.888870,65.647850 179.591171,65.926132 
	C179.777878,66.083817 179.964569,66.241508 180.151276,66.399193 
	C180.433777,65.932388 180.716278,65.465584 181.340881,65.089630 
	C182.075241,66.003609 183.029541,67.257118 182.777206,67.586639 
	C177.085571,75.019348 181.534256,83.171188 181.024094,90.942894 
	C180.872040,93.259460 181.194000,95.613495 180.967163,97.917702 
	C179.982773,107.916641 183.033813,117.828346 181.606674,127.851929 
	C181.522583,128.442551 183.157944,129.277969 183.939056,130.367462 
	C183.605942,132.186050 183.326920,133.636658 183.047897,135.087250 
	C183.047897,135.087250 183.016724,135.009857 182.705597,135.086914 
	C181.933258,136.153442 181.472031,137.142944 181.010818,138.132431 
z"/>
<path fill="#FDF17A" opacity="1.000000" stroke="none" 
	d="
M90.841583,56.861008 
	C90.841583,56.861004 90.563744,57.014000 90.122871,57.084206 
	C89.376259,57.393604 89.070518,57.632797 88.764771,57.871994 
	C88.764771,57.871990 88.545174,58.019646 88.124390,58.080353 
	C87.389473,58.384068 87.075348,58.627068 86.761223,58.870071 
	C86.761223,58.870071 86.547760,59.016777 86.082924,58.911091 
	C85.400505,58.729092 85.182915,58.652775 84.967133,58.195709 
	C84.312874,51.602638 83.347076,45.401775 83.116745,39.173706 
	C82.978264,35.429260 82.141266,33.438698 78.053680,33.940857 
	C77.082970,34.060108 76.066925,33.810402 75.071732,33.730408 
	C79.518219,32.150177 83.861427,29.747255 88.434235,29.173149 
	C96.243423,28.192720 104.196594,28.359213 112.441544,28.440796 
	C111.525429,29.226664 110.257065,29.615698 108.562439,29.999687 
	C106.428223,30.005745 104.720284,30.016850 102.577972,30.020033 
	C97.863487,29.347700 96.770897,31.413643 96.925453,35.389019 
	C97.175896,41.830956 96.955063,48.291210 96.974258,54.804146 
	C97.015312,54.864563 97.007149,55.010422 96.605820,54.975494 
	C94.416862,55.580715 92.629219,56.220860 90.841583,56.861008 
z"/>
<path fill="#FDEB70" opacity="1.000000" stroke="none" 
	d="
M100.392784,175.947510 
	C96.244469,176.470276 95.943550,174.115051 95.962410,171.088196 
	C96.048752,157.226471 95.923874,143.363251 96.043381,129.502014 
	C96.082153,125.004837 96.328461,120.459694 97.087067,116.040741 
	C97.435081,114.013542 99.250031,112.238182 100.718033,110.576546 
	C101.690079,114.973190 102.808167,119.130844 102.907669,123.312737 
	C103.171776,134.412582 103.128098,145.525177 102.936623,156.628036 
	C102.848152,161.758286 100.250275,166.878586 102.877640,172.276978 
	C102.497536,173.310898 102.242683,174.069168 101.987823,174.827454 
	C101.546852,175.172379 101.105888,175.517288 100.392784,175.947510 
z"/>
<path fill="#FCF07A" opacity="1.000000" stroke="none" 
	d="
M89.583519,115.936737 
	C86.610817,120.210251 87.431137,125.465065 87.126534,130.299561 
	C86.257759,144.088562 85.728973,157.909744 85.550270,171.724518 
	C85.500809,175.547852 87.140892,179.393051 87.796967,183.885193 
	C86.284630,185.423523 84.981125,186.304871 82.985489,187.654205 
	C82.985489,184.950867 83.218658,182.984467 82.922928,181.101089 
	C82.597176,179.026443 81.785530,177.028076 81.185547,174.996490 
	C80.790962,167.098022 80.370506,159.200745 80.009018,151.300751 
	C79.642387,143.288437 79.134659,135.273499 79.133209,127.259636 
	C79.132820,125.121193 80.262390,122.496986 81.760689,120.962166 
	C83.804230,118.868767 86.698204,117.605545 89.583519,115.936737 
z"/>
<path fill="#FDE05F" opacity="1.000000" stroke="none" 
	d="
M66.997864,73.000008 
	C66.694878,67.400864 66.352821,61.803326 66.121902,56.201210 
	C66.075737,55.080997 66.677826,53.925610 66.590393,52.817257 
	C66.390205,50.279629 66.787422,46.322918 65.431664,45.532219 
	C62.553429,43.853584 60.405525,46.543282 59.051823,49.639977 
	C57.006420,52.980869 55.013138,55.965282 53.031139,58.957172 
	C51.952709,60.585091 50.893436,62.225708 49.499603,63.952454 
	C53.034462,53.865791 57.224945,43.946804 67.794807,38.659107 
	C68.772385,38.170059 69.437256,37.055931 70.956566,36.112633 
	C72.960876,36.865543 75.336327,37.698021 75.370224,38.616879 
	C75.548683,43.454296 75.765053,48.450787 74.745224,53.125229 
	C73.792000,57.494320 74.421066,60.916344 77.086845,64.509148 
	C76.979431,65.196205 76.891312,65.586731 76.441284,66.004364 
	C74.710129,69.024208 73.340897,72.016960 71.638901,74.930908 
	C69.870056,74.234749 68.433960,73.617378 66.997864,73.000008 
z"/>
<path fill="#FEE763" opacity="1.000000" stroke="none" 
	d="
M103.002899,172.001328 
	C100.250275,166.878586 102.848152,161.758286 102.936623,156.628036 
	C103.128098,145.525177 103.171776,134.412582 102.907669,123.312737 
	C102.808167,119.130844 101.690079,114.973190 101.026840,110.410507 
	C101.158188,109.720299 101.356918,109.470032 102.170532,109.084122 
	C104.110542,108.610542 105.493561,108.318588 106.903816,108.492790 
	C106.896461,125.981224 106.861870,143.003510 106.720413,160.129761 
	C106.481285,160.540741 106.563309,160.790558 106.891914,161.437958 
	C106.874718,165.208084 106.825211,168.523438 106.775696,171.838776 
	C106.775696,171.838776 106.476059,172.002701 105.914001,171.998596 
	C104.568924,171.996765 103.785912,171.999054 103.002899,172.001328 
z"/>
<path fill="#FDCE3F" opacity="1.000000" stroke="none" 
	d="
M168.352539,149.984192 
	C163.349594,145.868729 162.252411,140.842697 163.797272,134.695297 
	C164.239655,132.934952 162.348633,130.588226 161.263031,127.882919 
	C161.003357,126.523193 161.008194,125.790916 161.301666,124.877151 
	C163.722214,121.126633 165.854126,117.557587 168.338058,114.048653 
	C169.554657,115.969658 171.147736,117.827690 171.155045,119.691956 
	C171.183548,126.945427 169.292923,134.381363 173.883606,141.258789 
	C173.803436,142.343826 173.839676,143.169449 173.899506,144.342010 
	C173.966003,145.150360 174.008942,145.611755 174.051865,146.073166 
	C174.051865,146.073166 174.004776,146.006256 173.691696,145.991486 
	C172.912216,145.982025 172.445801,145.987335 171.666733,146.056854 
	C170.918442,146.775513 170.482819,147.429962 170.047211,148.084427 
	C169.573730,148.683792 169.100266,149.283157 168.352539,149.984192 
z"/>
<path fill="#FDE96C" opacity="1.000000" stroke="none" 
	d="
M77.106140,64.212616 
	C74.421066,60.916344 73.792000,57.494320 74.745224,53.125229 
	C75.765053,48.450787 75.548683,43.454296 75.370224,38.616879 
	C75.336327,37.698021 72.960876,36.865543 71.274887,35.979630 
	C72.006554,35.308167 73.129143,34.650280 74.693649,34.041351 
	C75.135567,34.090302 75.325668,34.027332 75.325668,34.027332 
	C75.325668,34.027332 75.056679,33.755550 75.056679,33.755550 
	C75.056679,33.755550 75.095238,33.762173 75.083481,33.746292 
	C76.066925,33.810402 77.082970,34.060108 78.053680,33.940857 
	C82.141266,33.438698 82.978264,35.429260 83.116745,39.173706 
	C83.347076,45.401775 84.312874,51.602638 84.662735,58.370186 
	C83.918304,59.646286 83.480072,60.367161 83.041847,61.088036 
	C83.041847,61.088036 83.015877,61.022724 82.765335,61.063599 
	C82.352951,61.429897 82.191116,61.755325 82.029289,62.080753 
	C82.029289,62.080753 82.013809,62.014214 81.763504,62.062752 
	C81.350906,62.437576 81.188606,62.763866 81.026306,63.090157 
	C81.026314,63.090157 81.014046,63.019550 80.789810,63.101555 
	C80.380951,63.486828 80.196335,63.790092 80.011719,64.093353 
	C80.011719,64.093353 80.010071,64.010368 79.792023,64.097595 
	C79.386406,64.486588 79.198837,64.788353 79.011261,65.090118 
	C79.011261,65.090118 79.043861,65.026512 78.836899,64.902969 
	C78.122002,64.590492 77.614067,64.401558 77.106140,64.212616 
z"/>
<path fill="#FCE068" opacity="1.000000" stroke="none" 
	d="
M183.371811,134.950256 
	C183.326920,133.636658 183.605942,132.186050 184.243317,130.182922 
	C186.390213,125.262978 189.517990,120.956848 189.721207,116.516853 
	C190.384048,102.036751 189.979523,87.507774 190.294952,72.999374 
	C191.016663,73.004784 191.429077,73.008423 191.841476,73.012054 
	C199.656830,93.907089 195.625839,113.599754 185.731323,132.673599 
	C185.295914,133.512939 184.385101,134.105652 183.371811,134.950256 
z"/>
<path fill="#FBD85B" opacity="1.000000" stroke="none" 
	d="
M108.988708,30.004734 
	C110.257065,29.615698 111.525429,29.226664 112.906479,28.510872 
	C113.749977,28.129301 114.480782,28.074484 115.897873,28.364239 
	C121.407013,28.862831 126.229881,29.016850 131.052750,29.170872 
	C128.329544,29.454777 125.606346,29.738682 122.005249,30.018164 
	C116.464531,29.269171 114.543877,30.959011 114.903145,35.933491 
	C115.317947,41.676704 114.999603,47.472866 114.999603,53.965305 
	C117.152718,53.965305 119.583702,53.965305 122.014687,53.965305 
	C128.401993,54.264156 134.789307,54.563007 141.815979,55.168625 
	C143.299805,55.652954 144.144257,55.830513 144.988708,56.008072 
	C147.225433,57.468674 149.462158,58.929276 151.851654,60.901207 
	C152.004440,61.412537 152.000717,61.830750 152.000717,61.830750 
	C146.602310,59.872555 141.203903,57.914360 135.105225,55.594475 
	C125.939735,55.054722 117.474518,54.876656 108.989349,54.323654 
	C108.975838,45.967388 108.982277,37.986061 108.988708,30.004734 
z"/>
<path fill="#F5D36B" opacity="1.000000" stroke="none" 
	d="
M121.041382,162.828293 
	C127.402336,162.193512 133.763306,161.558746 140.577759,161.218842 
	C141.046051,161.710571 141.060852,161.907440 141.075638,162.104309 
	C133.465729,163.070297 125.863594,164.104935 118.242149,164.969269 
	C115.094208,165.326263 114.973831,163.057266 114.983658,160.722702 
	C115.025421,150.799301 115.009995,140.875641 115.349640,130.494415 
	C115.859283,130.042252 116.034760,130.047745 116.460381,130.321899 
	C117.130943,132.661758 117.869423,134.726120 117.913979,136.805359 
	C118.066673,143.929855 117.794930,151.067764 118.117348,158.180954 
	C118.189415,159.770966 120.020264,161.281281 121.041382,162.828293 
z"/>
<path fill="#F7D46A" opacity="1.000000" stroke="none" 
	d="
M167.986038,113.988548 
	C165.854126,117.557587 163.722214,121.126633 161.024872,124.849106 
	C160.274475,124.990051 160.089554,124.977585 159.904648,124.965111 
	C165.868759,116.553185 167.848923,106.641602 168.696915,96.856857 
	C169.468658,87.951965 167.024338,79.102951 161.204269,71.783661 
	C158.693588,68.626251 155.763885,65.802040 153.010223,62.185871 
	C152.996445,61.363415 152.996948,61.181545 152.997437,60.999680 
	C152.997437,60.999680 153.488373,61.007797 153.897034,61.291687 
	C155.861710,62.727684 157.417694,63.879787 158.973694,65.031891 
	C160.044800,65.713135 161.115921,66.394379 162.548416,67.397621 
	C162.924484,68.141426 162.939178,68.563240 162.953857,68.985046 
	C163.531586,70.452988 164.109299,71.920937 164.995880,74.011276 
	C166.862030,78.424225 168.419327,82.214775 169.981369,86.436569 
	C169.843521,92.849747 169.847122,98.840225 169.497849,104.810074 
	C169.317749,107.888504 168.510132,110.930237 167.986038,113.988548 
z"/>
<path fill="#FFFFFF" opacity="1.000000" stroke="none" 
	d="
M46.561859,72.147919 
	C46.982391,94.557610 47.024685,117.164986 47.033005,139.772385 
	C47.041882,163.879684 47.018635,187.986984 46.961102,212.561981 
	C46.608536,211.857178 46.039371,210.684921 46.038239,209.512131 
	C45.994530,164.284103 46.002254,119.056038 46.010971,73.827972 
	C46.011066,73.333847 46.113831,72.839737 46.561859,72.147919 
z"/>
<path fill="#FEEB9E" opacity="1.000000" stroke="none" 
	d="
M70.954117,196.976990 
	C71.283821,195.572952 71.895973,194.169724 71.900009,192.764755 
	C71.945831,176.828262 71.898636,160.891495 71.897713,144.020477 
	C71.875038,133.047791 71.830986,123.009422 71.825150,112.505936 
	C71.908340,100.692970 71.953323,89.345116 72.302536,77.996323 
	C73.012390,77.992493 73.418022,77.989616 73.823647,77.986732 
	C73.548965,94.381729 73.135254,110.775864 73.033630,127.171936 
	C72.896339,149.321243 73.024727,171.472137 72.947197,193.622025 
	C72.941292,195.307510 72.205284,196.990448 71.407883,198.440567 
	C70.989456,197.796707 70.971786,197.386856 70.954117,196.976990 
z"/>
<path fill="#FDF0B7" opacity="1.000000" stroke="none" 
	d="
M107.234505,171.802979 
	C106.825211,168.523438 106.874718,165.208084 106.908905,161.197968 
	C106.893593,160.503189 106.827271,160.025787 106.827271,160.025787 
	C106.861870,143.003510 106.896461,125.981224 106.902061,108.200012 
	C105.552979,106.946716 104.232895,106.452362 102.912811,105.957993 
	C104.439873,105.364288 105.966934,104.770584 107.494003,104.176880 
	C107.741722,105.358368 108.206818,106.540230 108.204765,107.721283 
	C108.170303,127.587723 108.083717,147.454102 107.985474,167.320374 
	C107.978142,168.803101 107.794823,170.284943 107.234505,171.802979 
z"/>
<path fill="#F7D15F" opacity="1.000000" stroke="none" 
	d="
M141.479828,162.055664 
	C141.060852,161.907440 141.046051,161.710571 141.014740,161.217255 
	C145.438828,159.382401 149.879410,157.843979 154.939301,156.027405 
	C156.373764,155.170151 157.188950,154.591064 158.004135,154.011993 
	C160.780960,153.010483 163.557785,152.008972 166.715195,151.031357 
	C159.975815,157.661575 150.982239,159.954742 141.479828,162.055664 
z"/>
<path fill="#FEECB5" opacity="1.000000" stroke="none" 
	d="
M136.780426,82.089127 
	C136.799637,81.632576 136.818832,81.176033 136.856323,80.079613 
	C136.873459,79.029663 136.872330,78.619591 136.871185,78.209511 
	C137.246857,79.596252 137.943237,80.981560 137.949463,82.369957 
	C138.026566,99.599571 138.003235,116.829636 138.073578,134.523956 
	C137.795227,134.786865 137.449066,134.585403 136.990448,133.684357 
	C136.845474,116.019577 136.812958,99.054352 136.780426,82.089127 
z"/>
<path fill="#FCE79A" opacity="1.000000" stroke="none" 
	d="
M116.210236,130.053238 
	C116.034760,130.047745 115.859283,130.042252 115.420563,130.032288 
	C115.103973,124.356163 115.159927,118.680717 114.963577,113.014000 
	C114.799088,108.266678 114.221245,103.533073 114.080780,98.785873 
	C114.036407,97.286278 114.813042,95.762390 115.617325,94.440506 
	C116.068306,95.109940 116.115906,95.588478 116.125122,96.528610 
	C116.127899,108.011208 116.169067,119.032227 116.210236,130.053238 
z"/>
<path fill="#FCF6BA" opacity="1.000000" stroke="none" 
	d="
M81.105530,175.447723 
	C81.785530,177.028076 82.597176,179.026443 82.922928,181.101089 
	C83.218658,182.984467 82.985489,184.950867 82.985489,187.654205 
	C84.981125,186.304871 86.284630,185.423523 87.800819,184.300232 
	C88.786552,184.029404 89.559608,184.000488 90.717224,184.014496 
	C88.396133,186.181290 85.690475,188.305176 82.041222,191.169754 
	C81.644707,185.208359 81.335106,180.553665 81.105530,175.447723 
z"/>
<path fill="#FFFFFE" opacity="1.000000" stroke="none" 
	d="
M109.009300,54.698589 
	C117.474518,54.876656 125.939735,55.054722 134.707382,55.525047 
	C122.631111,55.874832 110.252419,55.932358 97.423004,55.709244 
	C96.972298,55.428608 97.007149,55.010422 97.007149,55.010422 
	C97.007149,55.010422 97.015312,54.864563 97.397820,54.859604 
	C99.195557,54.797222 100.610794,54.739803 102.457626,54.758453 
	C104.929260,54.789215 106.969276,54.743900 109.009300,54.698589 
z"/>
<path fill="#F6D86B" opacity="1.000000" stroke="none" 
	d="
M168.039825,41.865791 
	C172.035614,45.313046 176.031403,48.760300 179.993927,52.624313 
	C179.960648,53.041069 179.832855,53.168919 179.527237,53.136650 
	C178.809860,53.080814 178.398102,53.057247 177.866592,52.821022 
	C177.546631,52.342175 177.294525,52.141006 176.922073,51.678467 
	C175.602325,50.542416 174.351044,49.732758 172.927094,48.643036 
	C171.171585,46.570900 169.588745,44.778828 168.014893,42.706528 
	C168.029205,42.239464 168.034515,42.052628 168.039825,41.865791 
z"/>
<path fill="#FFF3BF" opacity="1.000000" stroke="none" 
	d="
M131.378815,29.138752 
	C126.229881,29.016850 121.407013,28.862831 116.259415,28.439014 
	C125.532410,28.522785 135.130142,28.876352 144.903107,29.602463 
	C143.096130,29.898741 141.113907,29.822475 138.377686,29.542576 
	C136.086899,29.280872 134.550125,29.222805 133.013351,29.164738 
	C132.577194,29.145370 132.141037,29.126001 131.378815,29.138752 
z"/>
<path fill="#FDE96C" opacity="1.000000" stroke="none" 
	d="
M73.903122,77.590652 
	C73.418022,77.989616 73.012390,77.992493 72.294571,77.622910 
	C71.978806,76.503525 71.975227,75.756615 71.971657,75.009705 
	C73.340897,72.016960 74.710129,69.024208 76.609955,66.233742 
	C77.433846,66.671188 77.727158,66.906364 78.020462,67.141541 
	C76.674515,70.492546 75.328560,73.843559 73.903122,77.590652 
z"/>
<path fill="#FDD347" opacity="1.000000" stroke="none" 
	d="
M153.565399,130.963226 
	C150.812698,137.445663 145.108871,136.145035 139.331543,135.381439 
	C144.498932,136.393814 148.330948,131.954361 153.565399,130.963226 
z"/>
<path fill="#FDD347" opacity="1.000000" stroke="none" 
	d="
M159.579987,125.103714 
	C160.089554,124.977585 160.274475,124.990051 160.736221,125.030579 
	C161.008194,125.790916 161.003357,126.523193 160.997742,127.622253 
	C160.337372,128.760864 159.677780,129.532715 159.009094,130.652283 
	C159.000000,131.000000 158.994339,130.994629 158.994339,130.994629 
	C157.586838,130.991211 156.179321,130.987793 154.350128,130.965286 
	C155.704071,129.044891 157.479691,127.143608 159.579987,125.103714 
z"/>
<path fill="#FECF46" opacity="1.000000" stroke="none" 
	d="
M136.529526,78.133789 
	C136.872330,78.619591 136.873459,79.029663 136.802475,79.740448 
	C134.376953,81.356865 132.023560,82.672592 129.286133,83.974304 
	C131.330688,81.992882 133.759277,80.025475 136.529526,78.133789 
z"/>
<path fill="#F5D36B" opacity="1.000000" stroke="none" 
	d="
M116.163506,96.067024 
	C116.115906,95.588478 116.068306,95.109940 115.990913,94.272087 
	C118.047966,92.277977 120.134819,90.643173 122.589958,88.952805 
	C122.962364,89.352364 122.966476,89.807472 122.667892,90.754532 
	C120.297966,92.853325 118.230736,94.460175 116.163506,96.067024 
z"/>
<path fill="#F6D86B" opacity="1.000000" stroke="none" 
	d="
M191.821548,72.651955 
	C191.429077,73.008423 191.016663,73.004784 190.207199,72.645134 
	C189.151321,69.908005 188.492493,67.526894 187.898621,65.087448 
	C187.963547,65.029114 188.092621,64.911568 188.092621,64.911568 
	C189.328949,67.371658 190.565292,69.831757 191.821548,72.651955 
z"/>
<path fill="#FACE4D" opacity="1.000000" stroke="none" 
	d="
M154.051361,33.515385 
	C152.129547,33.499840 150.175583,33.074867 148.132339,32.277710 
	C150.035110,32.305672 152.027161,32.705814 154.051361,33.515385 
z"/>
<path fill="#F2D35C" opacity="1.000000" stroke="none" 
	d="
M168.022919,41.503082 
	C168.034515,42.052628 168.029205,42.239464 167.763367,42.709297 
	C167.335251,42.995922 167.167633,42.999561 167.000000,43.003201 
	C166.019180,41.929920 165.038376,40.856640 163.980286,39.472549 
	C165.270691,39.821285 166.638367,40.480831 168.022919,41.503082 
z"/>
<path fill="#FDEB70" opacity="1.000000" stroke="none" 
	d="
M102.672440,106.011475 
	C104.232895,106.452362 105.552979,106.946716 106.874817,107.733856 
	C105.493561,108.318588 104.110542,108.610542 102.373550,108.953621 
	C102.008453,108.533585 101.997337,108.062431 101.971298,107.238220 
	C101.961601,106.522850 102.120163,106.249435 102.672440,106.011475 
z"/>
<path fill="#F6D86B" opacity="1.000000" stroke="none" 
	d="
M182.911774,58.975929 
	C182.934280,58.517754 182.956787,58.059586 183.022293,57.260071 
	C184.051041,58.347488 185.036819,59.776253 186.006348,61.600986 
	C185.990112,61.996956 185.881027,62.077969 185.624390,61.908859 
	C184.549088,60.818474 183.730423,59.897202 182.911774,58.975929 
z"/>
<path fill="#FCE068" opacity="1.000000" stroke="none" 
	d="
M177.000214,139.976944 
	C177.471298,139.982773 177.942368,139.988586 178.767288,140.001572 
	C178.313385,141.281296 177.505646,142.553864 176.341064,143.905792 
	C175.984222,143.985153 175.892014,143.892654 175.919052,143.532654 
	C175.960983,142.448364 175.975861,141.724091 176.197495,140.870407 
	C176.664215,140.534149 176.862869,140.279465 177.000214,139.976944 
z"/>
<path fill="#FEFAC2" opacity="1.000000" stroke="none" 
	d="
M96.605820,54.975494 
	C97.007149,55.010422 96.972298,55.428608 96.955238,55.637779 
	C95.176605,56.228729 93.415024,56.610508 91.247513,56.926647 
	C92.629219,56.220860 94.416862,55.580715 96.605820,54.975494 
z"/>
<path fill="#FEF57A" opacity="1.000000" stroke="none" 
	d="
M102.877640,172.276978 
	C103.785912,171.999054 104.568924,171.996765 105.743637,172.010468 
	C104.975594,172.959412 103.815834,173.892365 102.321953,174.826385 
	C102.242683,174.069168 102.497536,173.310898 102.877640,172.276978 
z"/>
<path fill="#F2D35C" opacity="1.000000" stroke="none" 
	d="
M160.937866,36.604359 
	C159.522842,36.542854 157.959061,36.147152 156.180664,35.466019 
	C157.573746,35.543777 159.181427,35.906967 160.937866,36.604359 
z"/>
<path fill="#F6D86B" opacity="1.000000" stroke="none" 
	d="
M183.063538,56.631020 
	C182.289734,56.671051 181.476807,56.375465 180.330475,55.680183 
	C179.942322,54.576630 179.887589,53.872772 179.832855,53.168919 
	C179.832855,53.168919 179.960648,53.041069 180.024704,52.977299 
	C181.067322,54.040821 182.045883,55.168114 183.063538,56.631020 
z"/>
<path fill="#F5D36B" opacity="1.000000" stroke="none" 
	d="
M125.707924,86.095810 
	C125.228172,87.083740 124.399590,87.997818 123.234833,88.936066 
	C123.718803,87.980812 124.538956,87.001389 125.707924,86.095810 
z"/>
<path fill="#FEFAC2" opacity="1.000000" stroke="none" 
	d="
M83.384888,61.051613 
	C83.480072,60.367161 83.918304,59.646286 84.660934,58.750935 
	C85.182915,58.652775 85.400505,58.729092 85.956818,58.881592 
	C85.439682,59.643578 84.583809,60.329380 83.384888,61.051613 
z"/>
<path fill="#FCF6BA" opacity="1.000000" stroke="none" 
	d="
M92.380920,183.065674 
	C92.746422,182.393097 93.448471,181.672394 94.497375,180.926254 
	C94.135315,181.606400 93.426392,182.311981 92.380920,183.065674 
z"/>
<path fill="#FCE068" opacity="1.000000" stroke="none" 
	d="
M181.318787,137.998734 
	C181.472031,137.142944 181.933258,136.153442 182.744705,135.101456 
	C182.605530,135.980988 182.116135,136.923019 181.318787,137.998734 
z"/>
<path fill="#FEFAC2" opacity="1.000000" stroke="none" 
	d="
M78.315521,67.015205 
	C77.727158,66.906364 77.433846,66.671188 76.971863,66.206635 
	C76.891312,65.586731 76.979431,65.196205 77.086845,64.509148 
	C77.614067,64.401558 78.122002,64.590492 78.857170,64.932404 
	C78.926468,65.686539 78.768524,66.287704 78.315521,67.015205 
z"/>
<path fill="#F6D86B" opacity="1.000000" stroke="none" 
	d="
M186.043518,61.954956 
	C186.737350,62.696396 187.377792,63.479843 188.055420,64.587433 
	C188.092621,64.911568 187.963547,65.029114 187.592239,64.968849 
	C186.774307,63.965042 186.327667,63.021503 185.881027,62.077965 
	C185.881027,62.077969 185.990112,61.996956 186.043518,61.954956 
z"/>
<path fill="#FEDA57" opacity="1.000000" stroke="none" 
	d="
M170.371368,148.036652 
	C170.482819,147.429962 170.918442,146.775513 171.672897,146.361420 
	C171.991257,147.007416 171.990784,147.413086 171.990311,147.818741 
	C171.558716,147.875458 171.127136,147.932159 170.371368,148.036652 
z"/>
<path fill="#FCE172" opacity="1.000000" stroke="none" 
	d="
M70.677658,197.026367 
	C70.971786,197.386856 70.989456,197.796707 71.008606,198.514114 
	C71.010094,198.821655 70.561638,198.985474 70.325745,199.023560 
	C70.193634,198.399673 70.297417,197.737701 70.677658,197.026367 
z"/>
<path fill="#F2D35C" opacity="1.000000" stroke="none" 
	d="
M163.084320,38.634624 
	C162.475388,38.510067 161.802231,38.035500 161.089539,37.228619 
	C161.706711,37.359074 162.363403,37.821846 163.084320,38.634624 
z"/>
<path fill="#FCE068" opacity="1.000000" stroke="none" 
	d="
M174.333252,145.980988 
	C174.008942,145.611755 173.966003,145.150360 174.237549,144.333633 
	C174.998688,143.949768 175.445358,143.921204 175.892014,143.892654 
	C175.892014,143.892654 175.984222,143.985153 176.030090,144.031647 
	C175.588852,144.681686 175.101746,145.285248 174.333252,145.980988 
z"/>
<path fill="#FCE068" opacity="1.000000" stroke="none" 
	d="
M172.290436,147.847839 
	C171.990784,147.413086 171.991257,147.007416 171.985565,146.297211 
	C172.445801,145.987335 172.912216,145.982025 173.726089,146.013641 
	C173.579239,146.659348 173.084900,147.268143 172.290436,147.847839 
z"/>
<path fill="#FEFAC2" opacity="1.000000" stroke="none" 
	d="
M79.282700,65.019943 
	C79.198837,64.788353 79.386406,64.486588 79.833527,64.097778 
	C79.913422,64.323746 79.733772,64.636757 79.282700,65.019943 
z"/>
<path fill="#FCF6BA" opacity="1.000000" stroke="none" 
	d="
M91.285599,184.028992 
	C91.207420,183.806763 91.401100,183.511276 91.845428,183.113785 
	C91.916534,183.326431 91.737000,183.641068 91.285599,184.028992 
z"/>
<path fill="#FEFAC2" opacity="1.000000" stroke="none" 
	d="
M80.282249,64.022133 
	C80.196335,63.790092 80.380951,63.486828 80.825485,63.098255 
	C80.907860,63.325600 80.730316,63.638252 80.282249,64.022133 
z"/>
<path fill="#FEFAC2" opacity="1.000000" stroke="none" 
	d="
M81.295738,63.025139 
	C81.188606,62.763866 81.350906,62.437576 81.796951,62.069668 
	C81.908867,62.338741 81.737015,62.649433 81.295738,63.025139 
z"/>
<path fill="#FACE4D" opacity="1.000000" stroke="none" 
	d="
M146.050186,30.683084 
	C145.846542,30.764343 145.560410,30.588989 145.163132,30.182522 
	C145.357224,30.109762 145.662460,30.268116 146.050186,30.683084 
z"/>
<path fill="#FCCF43" opacity="1.000000" stroke="none" 
	d="
M152.752991,60.998848 
	C152.996948,61.181545 152.996445,61.363415 152.979462,61.818237 
	C152.963013,62.091194 152.474609,61.986900 152.237671,61.908825 
	C152.000717,61.830750 152.004440,61.412537 152.012070,61.203072 
	C152.019699,60.993603 152.508560,60.998020 152.752991,60.998848 
z"/>
<path fill="#FACE4D" opacity="1.000000" stroke="none" 
	d="
M148.009995,31.705553 
	C147.789139,31.882463 147.516312,31.735472 147.124847,31.347069 
	C147.289139,31.261415 147.606400,31.353413 148.009995,31.705553 
z"/>
<path fill="#F7D15F" opacity="1.000000" stroke="none" 
	d="
M167.266495,151.024323 
	C167.217422,150.833832 167.426056,150.570831 167.861420,150.196167 
	C167.900162,150.373611 167.712189,150.662720 167.266495,151.024323 
z"/>
<path fill="#FEFAC2" opacity="1.000000" stroke="none" 
	d="
M82.298828,62.019184 
	C82.191116,61.755325 82.352951,61.429897 82.800369,61.066269 
	C82.913429,61.337917 82.740898,61.647766 82.298828,62.019184 
z"/>
<path fill="#FEFAC2" opacity="1.000000" stroke="none" 
	d="
M87.094513,58.918869 
	C87.075348,58.627068 87.389473,58.384068 87.994598,58.054649 
	C87.999672,58.301376 87.713737,58.634521 87.094513,58.918869 
z"/>
<path fill="#FEFAC2" opacity="1.000000" stroke="none" 
	d="
M89.092834,57.920265 
	C89.070518,57.632797 89.376259,57.393604 89.965202,57.067162 
	C89.972565,57.309456 89.696724,57.638992 89.092834,57.920265 
z"/>
<path fill="#FDF17A" opacity="1.000000" stroke="none" 
	d="
M75.010956,33.773819 
	C75.056679,33.755550 75.325668,34.027332 75.325668,34.027332 
	C75.325668,34.027332 75.135567,34.090302 75.046707,33.990292 
	C74.957855,33.890282 74.965240,33.792091 75.010956,33.773819 
z"/>
<path fill="#FACE4D" opacity="1.000000" stroke="none" 
	d="
M155.032806,34.713081 
	C154.841995,34.772690 154.562042,34.572613 154.153259,34.145248 
	C154.330841,34.096443 154.637253,34.274921 155.032806,34.713081 
z"/>
<path fill="#FECF46" opacity="1.000000" stroke="none" 
	d="
M116.125122,96.528610 
	C118.230736,94.460175 120.297966,92.853325 122.660873,91.095795 
	C122.636612,105.641335 122.357834,120.338623 121.981483,135.033401 
	C121.751038,144.031708 121.370872,153.026169 121.049667,162.425323 
	C120.020264,161.281281 118.189415,159.770966 118.117348,158.180954 
	C117.794930,151.067764 118.066673,143.929855 117.913979,136.805359 
	C117.869423,134.726120 117.130943,132.661758 116.460381,130.321899 
	C116.169067,119.032227 116.127899,108.011208 116.125122,96.528610 
z"/>
<path fill="#FECF46" opacity="1.000000" stroke="none" 
	d="
M136.562775,82.424721 
	C136.812958,99.054352 136.845474,116.019577 136.813751,133.437256 
	C136.538437,133.442856 136.141922,132.995499 136.143112,132.549210 
	C136.187592,115.952843 136.268845,99.356590 136.562775,82.424721 
z"/>
<path fill="#FDCE3F" opacity="1.000000" stroke="none" 
	d="
M154.467041,137.438614 
	C155.708130,138.323486 156.631897,139.352112 157.555664,140.380737 
	C155.474731,141.442307 153.393799,142.503876 151.312866,143.565445 
	C150.932175,143.018356 150.551483,142.471268 150.170792,141.924179 
	C151.497101,140.476913 152.823410,139.029633 154.467041,137.438614 
z"/>
<path fill="#FDCE3F" opacity="1.000000" stroke="none" 
	d="
M157.787476,153.742523 
	C157.188950,154.591064 156.373764,155.170151 155.278534,155.870636 
	C153.878815,154.964630 152.727783,153.968842 151.649704,152.899521 
	C150.832260,152.088715 150.107773,151.184174 149.341919,150.321350 
	C150.447510,149.927032 151.939438,148.880005 152.585358,149.262299 
	C154.431244,150.354889 155.933426,152.028168 157.787476,153.742523 
z"/>
<path fill="#FDCE3F" opacity="1.000000" stroke="none" 
	d="
M160.231934,148.714142 
	C160.075027,148.194366 160.178741,147.735245 160.282455,147.276138 
	C160.648621,147.481705 161.014786,147.687256 161.380951,147.892807 
	C161.084824,148.186798 160.788696,148.480804 160.231934,148.714142 
z"/>
<path fill="#FDCE3F" opacity="1.000000" stroke="none" 
	d="
M145.613358,154.316391 
	C145.757339,153.996002 146.039459,153.821747 146.321579,153.647491 
	C146.131546,153.919174 145.941513,154.190857 145.613358,154.316391 
z"/>
<path fill="#FDCE3F" opacity="1.000000" stroke="none" 
	d="
M158.997314,130.997192 
	C159.462570,131.278595 159.930527,131.562820 160.398468,131.847046 
	C160.240707,132.034134 160.082932,132.221222 159.925140,132.408295 
	C159.646179,132.109680 159.367203,131.811066 159.041290,131.253540 
	C158.994339,130.994629 159.000000,131.000000 158.997314,130.997192 
z"/>
<path fill="#FCCF43" opacity="1.000000" stroke="none" 
	d="
M167.002518,43.404003 
	C167.167633,42.999561 167.335251,42.995922 167.754379,42.989517 
	C169.588745,44.778828 171.171585,46.570900 172.648392,48.923321 
	C172.180069,57.938381 171.717255,66.390533 171.501877,74.848991 
	C171.407410,78.559265 171.817688,82.282402 171.661896,86.000137 
	C170.875549,86.002167 170.426086,86.003746 169.976608,86.005325 
	C168.419327,82.214775 166.862030,78.424225 165.165833,74.311813 
	C165.992233,72.986107 167.775269,71.996315 167.792801,70.976196 
	C167.925827,63.230034 167.738815,55.477432 167.583923,47.728184 
	C167.557709,46.417061 167.206238,45.112434 167.002518,43.404003 
z"/>
<path fill="#FED248" opacity="1.000000" stroke="none" 
	d="
M122.005768,53.541161 
	C119.583702,53.965305 117.152718,53.965305 114.999603,53.965305 
	C114.999603,47.472866 115.317947,41.676704 114.903145,35.933491 
	C114.543877,30.959011 116.464531,29.269171 121.570869,30.025074 
	C122.008545,37.729939 122.002701,45.423477 122.005768,53.541161 
z"/>
<path fill="#FCCF43" opacity="1.000000" stroke="none" 
	d="
M158.969055,64.647835 
	C157.417694,63.879787 155.861710,62.727684 154.142517,61.295685 
	C156.367355,60.983662 158.796661,60.888187 158.969055,64.647835 
z"/>
<path fill="#FCCF43" opacity="1.000000" stroke="none" 
	d="
M144.929398,55.698784 
	C144.144257,55.830513 143.299805,55.652954 142.227722,55.239994 
	C142.956741,55.132896 143.913422,55.261200 144.929398,55.698784 
z"/>
<path fill="#FBD85B" opacity="1.000000" stroke="none" 
	d="
M133.322968,29.381762 
	C134.550125,29.222805 136.086899,29.280872 137.953613,29.545084 
	C136.733231,29.700413 135.182922,29.649599 133.322968,29.381762 
z"/>
<path fill="#FCCF43" opacity="1.000000" stroke="none" 
	d="
M163.238312,68.938126 
	C162.939178,68.563240 162.924484,68.141426 162.886414,67.405319 
	C163.376892,67.368668 163.890732,67.646324 164.404587,67.923981 
	C164.110657,68.246391 163.816711,68.568802 163.238312,68.938126 
z"/>
<path fill="#FCCF43" opacity="1.000000" stroke="none" 
	d="
M156.386719,53.683548 
	C156.242737,54.003838 155.960663,54.178043 155.678604,54.352249 
	C155.868607,54.080654 156.058624,53.809059 156.386719,53.683548 
z"/>
<path fill="#FECC41" opacity="1.000000" stroke="none" 
	d="
M52.034790,213.031525 
	C47.542171,213.523041 47.998581,210.376053 47.999207,207.499863 
	C48.008015,166.853958 47.932934,126.207787 48.087978,85.562469 
	C48.109745,79.855209 49.244614,74.152199 49.889977,68.210297 
	C54.580132,68.650757 55.743465,71.113396 55.666756,74.375122 
	C55.579079,78.103134 55.196251,81.823196 55.008198,85.550072 
	C54.648632,92.676178 54.011002,99.807060 54.063824,106.931702 
	C54.237175,130.313843 54.709793,153.693634 54.955265,177.075516 
	C54.991600,180.536652 54.409897,184.003143 54.141438,187.469269 
	C54.051567,188.629623 53.577694,190.077606 54.079304,190.914810 
	C57.303596,196.296249 54.936058,201.750427 54.414097,207.129883 
	C54.239365,208.930725 52.913231,210.619843 52.085747,212.714203 
	C52.058098,213.068375 52.002972,213.001434 52.034790,213.031525 
z"/>
<path fill="#FEDD57" opacity="1.000000" stroke="none" 
	d="
M71.638901,74.930908 
	C71.975227,75.756615 71.978806,76.503525 71.990341,77.623848 
	C71.953323,89.345116 71.908340,100.692970 71.442123,112.517372 
	C64.374413,113.625679 67.956474,118.823776 66.989838,122.341858 
	C66.319138,123.458076 65.660431,124.228996 65.001724,124.999924 
	C65.001236,109.593399 64.959106,94.186615 65.054909,78.780693 
	C65.066391,76.933479 65.826866,75.090919 66.619019,73.123108 
	C68.433960,73.617378 69.870056,74.234749 71.638901,74.930908 
z"/>
<path fill="#FEDD57" opacity="1.000000" stroke="none" 
	d="
M67.001137,135.999863 
	C66.251213,135.999908 65.501282,135.999954 64.376442,136.000000 
	C64.163498,133.535156 64.325470,131.070297 64.998817,128.419067 
	C66.007339,128.488556 66.504478,128.744446 67.001419,129.437805 
	C67.001190,131.916809 67.001160,133.958328 67.001137,135.999863 
z"/>
<path fill="#FEDD58" opacity="1.000000" stroke="none" 
	d="
M67.001617,129.000351 
	C66.504478,128.744446 66.007339,128.488556 65.255707,128.116638 
	C65.001045,127.250435 65.000862,126.500267 65.001205,125.375000 
	C65.660431,124.228996 66.319138,123.458076 67.333328,122.436775 
	C70.220520,124.736145 68.751007,126.882362 67.001617,129.000351 
z"/>
<path fill="#FDE05F" opacity="1.000000" stroke="none" 
	d="
M67.001419,129.437805 
	C68.751007,126.882362 70.220520,124.736145 67.345329,122.091476 
	C67.956474,118.823776 64.374413,113.625679 71.403915,112.982483 
	C71.830986,123.009422 71.875038,133.047791 71.862465,143.554764 
	C66.996460,143.478088 68.921898,139.048279 67.248642,136.275620 
	C67.001160,133.958328 67.001190,131.916809 67.001419,129.437805 
z"/>
<path fill="#FEDA57" opacity="1.000000" stroke="none" 
	d="
M185.624390,61.908859 
	C186.327667,63.021503 186.774307,63.965042 187.527313,65.027184 
	C188.492493,67.526894 189.151321,69.908005 189.897888,72.643356 
	C189.979523,87.507774 190.384048,102.036751 189.721207,116.516853 
	C189.517990,120.956848 186.390213,125.262978 184.297394,129.814941 
	C183.157944,129.277969 181.522583,128.442551 181.606674,127.851929 
	C183.033813,117.828346 179.982773,107.916641 180.967163,97.917702 
	C181.194000,95.613495 180.872040,93.259460 181.024094,90.942894 
	C181.534256,83.171188 177.085571,75.019348 182.777206,67.586639 
	C183.029541,67.257118 182.075241,66.003609 181.341492,65.090240 
	C181.000000,65.000000 181.001221,65.001198 181.001221,65.001198 
	C181.406250,63.072678 181.811279,61.144157 182.564026,59.095779 
	C183.730423,59.897202 184.549088,60.818474 185.624390,61.908859 
z"/>
<path fill="#FDD347" opacity="1.000000" stroke="none" 
	d="
M169.981369,86.436569 
	C170.426086,86.003746 170.875549,86.002167 172.037018,86.000275 
	C173.499130,85.999969 174.249252,85.999985 174.999390,86.000000 
	C175.437180,88.107307 176.200928,90.208855 176.238266,92.323242 
	C176.298080,95.709404 175.722733,99.102913 175.697113,102.495430 
	C175.665085,106.737427 175.893692,110.982483 176.052704,115.224609 
	C176.351547,123.197350 176.681152,131.168930 176.999084,139.558975 
	C176.862869,140.279465 176.664215,140.534149 175.865829,140.869415 
	C174.884949,140.998322 174.442490,140.998856 174.000015,140.999390 
	C169.292923,134.381363 171.183548,126.945427 171.155045,119.691956 
	C171.147736,117.827690 169.554657,115.969658 168.338058,114.048653 
	C168.510132,110.930237 169.317749,107.888504 169.497849,104.810074 
	C169.847122,98.840225 169.843521,92.849747 169.981369,86.436569 
z"/>
<path fill="#FED445" opacity="1.000000" stroke="none" 
	d="
M174.999695,85.560692 
	C174.249252,85.999985 173.499130,85.999969 172.373886,85.999825 
	C171.817688,82.282402 171.407410,78.559265 171.501877,74.848991 
	C171.717255,66.390533 172.180069,57.938381 172.821060,49.203384 
	C174.351044,49.732758 175.602325,50.542416 176.738770,51.840542 
	C176.670441,52.741566 176.716965,53.154121 176.763489,53.566681 
	C177.171097,53.389011 177.578720,53.211342 177.986343,53.033676 
	C178.398102,53.057247 178.809860,53.080814 179.527237,53.136650 
	C179.887589,53.872772 179.942322,54.576630 180.009033,55.634819 
	C176.220627,57.738674 175.302048,59.802044 176.516312,64.440796 
	C177.655594,68.793091 175.833252,73.909630 175.376190,78.695816 
	C175.172363,80.830177 175.120712,82.979080 174.999695,85.560692 
z"/>
<path fill="#FEDA57" opacity="1.000000" stroke="none" 
	d="
M180.999390,64.999390 
	C180.716278,65.465584 180.433777,65.932388 180.151276,66.399193 
	C179.964569,66.241508 179.777878,66.083817 179.591171,65.926132 
	C179.888870,65.647850 180.186569,65.369576 180.742737,65.046249 
	C181.001221,65.001198 181.000000,65.000000 180.999390,64.999390 
z"/>
<path fill="#FEE561" opacity="1.000000" stroke="none" 
	d="
M108.989349,54.323654 
	C106.969276,54.743900 104.929260,54.789215 102.476028,54.361603 
	C102.379326,45.935104 102.695831,37.981529 103.012337,30.027954 
	C104.720284,30.016850 106.428223,30.005745 108.562439,29.999687 
	C108.982277,37.986061 108.975838,45.967388 108.989349,54.323654 
z"/>
<path fill="#FDED6C" opacity="1.000000" stroke="none" 
	d="
M102.577972,30.020031 
	C102.695831,37.981529 102.379326,45.935104 102.044418,54.285530 
	C100.610794,54.739803 99.195557,54.797222 97.356766,54.799187 
	C96.955063,48.291210 97.175896,41.830956 96.925453,35.389019 
	C96.770897,31.413643 97.863487,29.347700 102.577972,30.020031 
z"/>
<path fill="#FDEB70" opacity="1.000000" stroke="none" 
	d="
M106.720413,160.129761 
	C106.827271,160.025787 106.893593,160.503189 106.876602,160.743179 
	C106.563309,160.790558 106.481285,160.540741 106.720413,160.129761 
z"/>
<path fill="#FEDA57" opacity="1.000000" stroke="none" 
	d="
M173.883606,141.258789 
	C174.442490,140.998856 174.884949,140.998322 175.659088,140.998810 
	C175.975861,141.724091 175.960983,142.448364 175.919052,143.532654 
	C175.445358,143.921204 174.998688,143.949768 174.213974,143.986694 
	C173.839676,143.169449 173.803436,142.343826 173.883606,141.258789 
z"/>
<path fill="#FED74C" opacity="1.000000" stroke="none" 
	d="
M177.866592,52.821018 
	C177.578720,53.211342 177.171097,53.389011 176.763489,53.566681 
	C176.716965,53.154121 176.670441,52.741566 176.807236,52.166939 
	C177.294525,52.141006 177.546631,52.342175 177.866592,52.821018 
z"/>
</svg>